<svg xmlns="http://www.w3.org/2000/svg" xmlns:xlink="http://www.w3.org/1999/xlink" viewBox="0 0 1612.68 844.98"><defs><style>.cls-1{isolation:isolate;}.cls-2{fill:#fff;}.cls-3,.cls-4{mix-blend-mode:multiply;}.cls-3{fill:url(#Gradiente_sem_nome_6);}.cls-4{fill:url(#Gradiente_sem_nome_7);}</style><linearGradient id="Gradiente_sem_nome_6" x1="6736.81" y1="4905.26" x2="6899.72" y2="4905.26" gradientTransform="matrix(-0.71, -0.71, -0.71, 0.71, 9589.75, 1896.74)" gradientUnits="userSpaceOnUse"><stop offset="0" stop-color="#fff"/><stop offset="0.13" stop-color="#fbfafc"/><stop offset="0.27" stop-color="#efedf5"/><stop offset="0.42" stop-color="#dad6e8"/><stop offset="0.57" stop-color="#bdb7d6"/><stop offset="0.73" stop-color="#998ebe"/><stop offset="0.9" stop-color="#6c5da2"/><stop offset="1" stop-color="#4c398e"/></linearGradient><linearGradient id="Gradiente_sem_nome_7" x1="855.26" y1="-976.3" x2="1018.17" y2="-976.3" gradientTransform="translate(340.62 1896.74) rotate(-45)" xlink:href="#Gradiente_sem_nome_6"/></defs><g class="cls-1"><g id="LOGO"><path class="cls-2" d="M74.1,680.8a177.47,177.47,0,0,1,0-251L441.5,62.4a177.49,177.49,0,0,1,251,0L806.34,176.24,920.18,62.4a177.49,177.49,0,0,1,251,0l367.4,367.41a177.46,177.46,0,0,1,0,251L1436.8,782.59a177.49,177.49,0,0,1-251,0l-127-127-127,127a177.49,177.49,0,0,1-251,0l-127-127-127,127a177.47,177.47,0,0,1-251,0Z"/><path class="cls-3" d="M1058.82,655.61l227.29-227.28a177.47,177.47,0,0,1,251,0l1.48,1.49a177.46,177.46,0,0,1,0,251L1436.8,782.59a177.49,177.49,0,0,1-251,0Z"/><path class="cls-4" d="M553.86,655.61,326.57,428.33a177.47,177.47,0,0,0-251,0l-1.48,1.49a177.47,177.47,0,0,0,0,251L175.89,782.59a177.47,177.47,0,0,0,251,0Z"/></g></g></svg>